<svg width="1440" height="602" viewBox="0 0 1440 602" fill="none" xmlns="http://www.w3.org/2000/svg">
<path d="M489.257 90.3643C254.201 -116.233 67.0721 78.5539 -1 207.24V602.041H1439V294.667C1341.64 294.667 1214.93 231.769 1175.87 198.958C1074.51 113.831 1029.92 133.62 968.591 181.472C871.289 257.395 760.442 328.717 489.257 90.3643Z" fill="url(#paint0_linear_141_714)"/>
<path d="M1131 464.082C1062.6 556.223 957.167 592.107 913 598.532H1439V400.757C1363.5 337.433 1216.5 348.905 1131 464.082Z" fill="#5886C7"/>
<path d="M182 602.497H471.5C535 553.859 462.5 487.323 322.5 487.323C213.5 487.323 132 530.457 182 602.497Z" fill="#5886C7"/>
<path d="M638.982 287.914C841.903 430.189 975.481 218.165 1112.98 203.023C1140.98 199.939 1140.28 200.086 1195.48 215.871C1250.15 245.392 1375.48 302.69 1439.48 295.715V309.481C1316.48 333.342 1330.48 285.619 1195.48 272.771C1060.48 259.922 1065.48 398.502 913.481 444.389C796.859 479.596 690.981 505.782 506.481 444.389C420.981 415.939 400.318 345.023 241.481 415.939C56.4814 498.537 23.4814 385.654 13.9814 329.213C4.48142 272.771 61.4815 80.9624 293.481 94.2697C494.481 105.799 558.482 231.473 638.982 287.914Z" fill="#5886C7"/>
<path d="M312.144 182.631C217.045 182.631 112.544 207.334 123.842 297.234C159.148 372.15 245.038 324.896 303 303.315C334.541 291.571 380 276.986 447 309.382C473.713 322.299 506.5 309.382 490.56 276.986C451.418 197.433 370.517 182.631 312.144 182.631Z" fill="#1155B3" fill-opacity="0.34"/>
<path d="M1218.31 489.213C1234.65 413.99 1335.81 430.478 1369.81 443.326C1417.43 461.319 1424.93 489.213 1398.31 534.642C1380.43 565.165 1199.93 573.883 1218.31 489.213Z" fill="#477AC1"/>
<defs>
<linearGradient id="paint0_linear_141_714" x1="-1" y1="368.289" x2="1439" y2="366.122" gradientUnits="userSpaceOnUse">
<stop offset="0.494792" stop-color="#477AC1"/>
<stop offset="1" stop-color="#5886C7"/>
</linearGradient>
</defs>
</svg>
